<svg id="SvgjsSvg1001" width="288" height="288" xmlns="http://www.w3.org/2000/svg" version="1.1" xmlns:xlink="http://www.w3.org/1999/xlink" xmlns:svgjs="http://svgjs.com/svgjs"><defs id="SvgjsDefs1002"></defs><g id="SvgjsG1008" transform="matrix(1,0,0,1,0,0)"><svg xmlns="http://www.w3.org/2000/svg" width="288" height="288" fill="none" viewBox="0 0 990 990"><path fill="#d62b2b" d="M474.683 231.477C471.085 208.512 464.969 185.182 455.615 161.852 454.176 158.571 452.737 154.926 451.298 151.645 450.938 150.551 450.219 149.458 449.859 148.364 448.779 146.177 447.7 143.99 446.621 141.803 445.901 140.344 445.182 139.251 444.822 137.793 443.743 135.97 443.023 133.783 441.944 131.96 441.224 130.502 440.505 129.409 439.785 127.95 438.346 125.034 436.907 122.482 435.108 119.931 434.029 118.108 432.95 116.285 431.87 114.463 431.151 113.369 430.431 112.276 430.072 111.182 428.992 109.359 427.913 107.537 426.474 105.714 425.754 104.985 425.395 103.891 424.675 103.162 423.236 101.34 422.157 99.1525 420.718 97.3298 399.851 66.7092 375.387 42.2856 349.843 25.5172 341.928 20.4137 334.013 16.0394 326.099 12.3941 318.184 8.74875 310.269 5.8325 302.354 3.64531 299.835 2.91625 297.317 2.55172 294.439 1.82266 294.439 1.82266 294.439 1.82266 294.079 1.82266 291.561 1.45812 289.402 1.09359 286.884.729062 286.524.729062 286.524.729062 286.164.729062 283.646.364531 281.487.364531 278.969 0 278.609 0 278.609 0 278.249 0 276.091 0 273.572 0 271.414 0 271.054 0 270.694 0 270.334 0 268.176 0 266.017 0 263.859.364531 263.499.364531 262.779.364531 262.42.364531 260.261.364531 258.462.729062 256.663 1.09359 255.944 1.09359 255.584 1.09359 254.864 1.45812 253.066 1.82266 251.267 2.18719 249.108 2.55172 248.389 2.55172 247.669 2.91625 246.95 2.91625 245.151 3.28078 243.712 4.00984 241.913 4.37437 241.193 4.7389 240.114 4.7389 239.394 5.10344 237.955 5.46797 236.516 6.19703 235.077 6.56156 233.998 6.56156 232.919 6.92609 231.839 7.65515 229.321 8.74875 227.162 9.84234 224.644 10.9359 214.211 16.4039 204.497 23.6945 196.222 32.4433 185.069 44.1083 175.715 58.6895 168.52 75.0934 169.24 72.5417 169.959 70.3545 171.038 67.8028L143.696 135.241 107 152.739C107 152.739 107 152.739 107.359 152.739 104.481 153.468 101.603 154.561 98.725 155.29 92.2492 157.477 86.1332 160.029 80.0171 162.945 73.901 165.862 68.5045 168.778 63.108 172.423 44.4001 184.088 29.6496 199.399 20.2956 218.354 20.2956 218.719 19.9358 218.719 19.9358 219.083 18.8565 221.27 18.137 223.093 17.0577 225.28-5.96749 279.96 21.7347 347.034 82.5355 398.797 82.8952 399.162 83.6148 399.526 83.9745 399.891 86.4929 402.078 89.0113 403.901 91.5297 406.088 92.2492 406.817 92.9688 407.181 94.0481 407.91 96.2067 409.733 98.725 411.191 100.884 413.014 101.963 413.743 103.042 414.472 104.122 415.201 106.28 416.659 108.439 418.117 110.597 419.94 111.677 420.669 113.116 421.398 114.195 422.127 116.354 423.585 118.512 425.043 120.671 426.501 122.11 427.23 123.189 427.96 124.628 429.053 126.787 430.511 128.946 431.605 131.464 433.063 132.903 433.792 134.342 434.521 135.421 435.25 137.58 436.708 140.098 437.802 142.257 438.896 143.696 439.625 145.135 440.354 146.214 441.083 148.733 442.541 151.251 443.634 154.129 444.728 155.209 445.457 156.648 445.822 157.727 446.551 161.684 448.373 165.642 450.196 169.599 451.654 211.692 469.516 254.145 475.349 293 474.984 303.433 474.62 313.866 474.255 323.58 473.161 326.818 472.797 330.056 472.432 333.294 472.068 387.619 464.413 428.273 445.457 438.706 434.521 446.261 427.23 457.414 405.359 466.048 374.738 467.128 371.457 467.847 367.812 468.926 364.167 474.323 341.93 478.28 315.684 479 287.251 479 283.605 479 279.96 479 276.315 478.28 261.733 476.841 246.788 474.683 231.477zM228.865 510.735C206.159 514.377 183.092 520.568 160.025 530.037 156.782 531.494 153.177 532.951 149.934 534.408 148.852 534.772 147.771 535.5 146.69 535.865 144.527 536.957 142.365 538.05 140.202 539.142 138.761 539.871 137.679 540.599 136.238 540.963 134.436 542.056 132.273 542.784 130.471 543.877 129.029 544.605 127.948 545.334 126.507 546.062 123.623 547.519 121.1 548.976 118.577 550.797 116.775 551.889 114.973 552.982 113.171 554.075 112.09 554.803 111.009 555.531 109.927 555.896 108.125 556.988 106.323 558.081 104.521 559.538 103.8 560.266 102.719 560.63 101.998 561.359 100.196 562.815 98.0335 563.908 96.2314 565.365 65.9564 586.488 41.8084 611.254 25.2292 637.112 20.1834 645.125 15.8584 653.137 12.2542 661.15 8.65002 669.162 5.76668 677.175 3.60417 685.187 2.88334 687.736 2.52292 690.286 1.80209 693.199 1.80209 693.199 1.80209 693.199 1.80209 693.564 1.44167 696.113 1.08125 698.298.720835 700.848.720835 701.212.720835 701.212.720835 701.576.360417 704.125.360417 706.311 0 708.86 0 709.224 0 709.224 0 709.588 0 711.774 0 714.323 0 716.508 0 716.872 0 717.237 0 717.601 0 719.786 0 721.971.360417 724.156.360417 724.521.360417 725.249.360417 725.613.360417 727.798.720835 729.619 1.08125 731.44 1.08125 732.169 1.08125 732.533 1.44167 733.262 1.80209 735.083 2.1625 736.903 2.52292 739.089 2.52292 739.817 2.88334 740.546 2.88334 741.274 3.24376 743.095 3.96459 744.552 4.32501 746.373 4.68543 747.101 4.68543 748.194 5.04584 748.922 5.40626 750.379 6.1271 751.836 6.48751 753.293 6.84793 754.385 7.20835 755.478 7.56877 756.57 8.65002 759.12 9.73127 761.305 10.8125 763.854 16.2188 774.416 23.4271 784.25 32.0771 792.626 43.6105 803.917 58.0272 813.386 74.246 820.67 71.7231 819.941 69.5606 819.213 67.0376 818.12L133.715 845.8 150.654 882.948C150.654 882.948 150.654 882.948 150.654 882.584 151.375 885.498 152.457 888.411 153.177 891.325 155.34 897.88 157.863 904.072 160.746 910.263 163.629 916.455 166.513 921.918 170.117 927.381 182.011 946.319 197.148 961.251 215.89 970.721 216.25 970.721 216.25 971.085 216.611 971.085 218.773 972.177 220.575 972.906 222.738 973.998 277.161 996.943 343.117 969.264 394.657 907.35 395.017 906.985 395.378 906.257 395.738 905.893 397.901 903.343 399.703 900.794 401.865 898.245 402.586 897.516 402.947 896.788 403.667 895.695 405.47 893.51 406.911 890.961 408.713 888.775 409.434 887.683 410.155 886.59 410.876 885.498 412.317 883.312 413.759 881.127 415.561 878.942 416.282 877.849 417.003 876.393 417.724 875.3 419.165 873.115 420.607 870.93 422.049 868.744 422.77 867.287 423.49 866.195 424.572 864.738 426.013 862.553 427.095 860.368 428.536 857.818 429.257 856.361 429.978 854.905 430.699 853.812 432.14 851.627 433.222 849.077 434.303 846.892 435.024 845.435 435.745 843.979 436.465 842.886 437.907 840.337 438.988 837.787 440.07 834.874 440.79 833.781 441.151 832.324 441.872 831.232 443.674 827.225 445.476 823.219 446.918 819.213 464.578 776.601 470.345 733.626 469.984 694.292 469.624 683.73 469.263 673.168 468.182 663.335 467.822 660.057 467.461 656.779 467.101 653.501 459.532 598.507 440.79 557.352 429.978 546.791 422.77 539.142 401.145 527.852 370.869 519.111 367.626 518.019 364.022 517.29 360.417 516.198 338.432 510.735 312.482 506.728 284.369 506 280.765 506 277.161 506 273.557 506 258.78 507.093 244.003 508.185 228.865 510.735zM515.685 758.7C519.289 781.648 525.415 804.96 534.785 828.272 536.226 831.551 537.668 835.193 539.109 838.471 539.47 839.564 540.19 840.657 540.551 841.75 541.632 843.935 542.713 846.121 543.794 848.306 544.515 849.763 545.236 850.856 545.596 852.313 546.677 854.134 547.398 856.32 548.479 858.141 549.2 859.598 549.921 860.691 550.641 862.148 552.083 865.062 553.524 867.611 555.326 870.161 556.407 871.982 557.488 873.804 558.57 875.625 559.29 876.718 560.011 877.81 560.371 878.903 561.453 880.724 562.534 882.546 563.975 884.367 564.696 885.096 565.056 886.188 565.777 886.917 567.219 888.738 568.3 890.924 569.741 892.745 590.643 923.342 615.148 947.747 640.735 964.502 648.663 969.602 656.592 973.973 664.52 977.615 672.448 981.258 680.376 984.172 688.305 986.357 690.827 987.086 693.35 987.45 696.233 988.179 696.233 988.179 696.233 988.179 696.593 988.179 699.116 988.543 701.278 988.907 703.801 989.272 704.161 989.272 704.161 989.272 704.522 989.272 707.044 989.636 709.207 989.636 711.729 990 712.09 990 712.09 990 712.45 990 714.612 990 717.135 990 719.297 990 719.657 990 720.018 990 720.378 990 722.54 990 724.703 990 726.865 989.636 727.225 989.636 727.946 989.636 728.306 989.636 730.469 989.636 732.271 989.272 734.072 988.907 734.793 988.907 735.154 988.907 735.874 988.543 737.676 988.179 739.478 987.815 741.64 987.45 742.361 987.45 743.082 987.086 743.803 987.086 745.604 986.722 747.046 985.993 748.848 985.629 749.569 985.265 750.65 985.265 751.37 984.901 752.812 984.536 754.253 983.808 755.695 983.444 756.776 983.079 757.857 982.715 758.938 982.351 761.461 981.258 763.623 980.165 766.146 979.072 776.597 973.609 786.327 966.324 794.616 957.582 805.787 945.926 815.157 931.355 822.364 914.964 821.644 917.514 820.923 919.699 819.842 922.249L847.23 854.863 883.989 837.743C883.989 837.743 883.989 837.743 883.628 837.743 886.511 837.014 889.394 835.922 892.277 835.193 898.764 833.008 904.89 830.458 911.017 827.544 917.143 824.63 922.549 821.716 927.954 818.073 946.694 806.053 961.469 790.754 970.839 771.813 970.839 771.449 971.199 771.449 971.199 771.085 972.281 768.899 973.001 767.078 974.082 764.893 996.786 709.891 969.398 643.232 908.134 591.144 907.773 590.78 907.053 590.416 906.692 590.052 904.17 587.866 901.647 586.045 899.124 583.859 898.404 583.131 897.683 582.767 896.602 582.038 894.439 580.217 891.917 578.76 889.755 576.939 888.673 576.21 887.592 575.482 886.511 574.753 884.349 573.296 882.187 571.839 880.024 570.018 878.943 569.289 877.502 568.561 876.421 567.832 874.258 566.375 872.096 564.918 869.934 563.461 868.492 562.733 867.411 562.004 865.97 560.912 863.808 559.455 861.645 558.362 859.123 556.905 857.681 556.176 856.24 555.448 855.159 554.719 852.996 553.262 850.474 552.17 848.311 551.077 846.87 550.348 845.428 549.62 844.347 548.891 841.825 547.434 839.302 546.342 836.419 545.249 835.338 544.52 833.896 544.156 832.815 543.428 828.851 541.606 824.887 539.785 820.923 538.328 778.759 520.48 736.235 514.652 697.314 515.016 686.863 515.38 676.412 515.744 666.682 516.837 663.439 517.201 660.195 517.566 656.952 517.93 602.535 525.579 561.813 544.52 551.362 555.448 543.794 562.733 532.623 584.588 523.974 615.185 522.892 618.463 522.172 622.106 521.091 625.748 515.685 647.968 511.721 674.194 511 702.605 511 706.248 511 709.891 511 713.533 512.081 728.832 513.162 743.766 515.685 758.7zM761.135 480.265C783.841 476.623 806.908 470.432 829.975 460.963 833.218 459.506 836.823 458.049 840.066 456.592 841.148 456.228 842.229 455.5 843.31 455.135 845.473 454.043 847.635 452.95 849.798 451.858 851.239 451.129 852.321 450.401 853.762 450.037 855.564 448.944 857.727 448.216 859.529 447.123 860.971 446.395 862.052 445.666 863.494 444.938 866.377 443.481 868.9 442.024 871.423 440.203 873.225 439.111 875.027 438.018 876.829 436.925 877.91 436.197 878.991 435.469 880.073 435.104 881.875 434.012 883.677 432.919 885.479 431.462 886.2 430.734 887.281 430.37 888.002 429.641 889.804 428.185 891.966 427.092 893.769 425.635 924.044 404.512 948.192 379.746 964.771 353.888 969.817 345.875 974.142 337.863 977.746 329.85 981.35 321.838 984.233 313.826 986.396 305.813 987.117 303.264 987.477 300.714 988.198 297.801 988.198 297.801 988.198 297.801 988.198 297.436 988.558 294.887 988.919 292.702 989.279 290.152 989.279 289.788 989.279 289.788 989.279 289.424 989.64 286.875 989.64 284.689 990 282.14 990 281.776 990 281.776 990 281.412 990 279.226 990 276.677 990 274.492 990 274.128 990 273.763 990 273.399 990 271.214 990 269.029 989.64 266.844 989.64 266.479 989.64 265.751 989.64 265.387 989.64 263.202 989.279 261.381 988.919 259.56 988.919 258.831 988.919 258.467 988.558 257.739 988.198 255.918 987.838 254.096 987.477 251.911 987.477 251.183 987.117 250.454 987.117 249.726 986.756 247.905 986.035 246.448 985.675 244.627 985.315 243.899 985.315 242.806 984.954 242.078 984.594 240.621 983.873 239.164 983.513 237.707 983.152 236.615 982.792 235.522 982.431 234.43 981.35 231.88 980.269 229.695 979.187 227.146 973.781 216.584 966.573 206.75 957.923 198.374 946.389 187.084 931.973 177.614 915.754 170.33 918.277 171.059 920.439 171.787 922.962 172.88L856.285 145.2 839.346 108.052C839.346 108.052 839.346 108.052 839.346 108.416 838.625 105.502 837.543 102.589 836.823 99.6753 834.66 93.1196 832.137 86.9282 829.254 80.7368 826.371 74.5454 823.487 69.0824 819.883 63.6194 807.989 44.6809 792.852 29.7487 774.11 20.2794 773.75 20.2794 773.75 19.9152 773.389 19.9152 771.227 18.8226 769.425 18.0942 767.262 17.0016 712.839-5.94305 646.883 21.7362 595.343 83.6504 594.983 84.0146 594.622 84.743 594.262 85.1072 592.099 87.6566 590.297 90.206 588.135 92.7554 587.414 93.4838 587.053 94.2122 586.333 95.3048 584.53 97.4901 583.089 100.039 581.287 102.225 580.566 103.317 579.845 104.41 579.124 105.502 577.683 107.688 576.241 109.873 574.439 112.058 573.718 113.151 572.997 114.607 572.276 115.7 570.835 117.885 569.393 120.071 567.951 122.256 567.23 123.713 566.51 124.805 565.428 126.262 563.987 128.447 562.905 130.632 561.464 133.182 560.743 134.639 560.022 136.095 559.301 137.188 557.86 139.373 556.778 141.923 555.697 144.108 554.976 145.565 554.255 147.021 553.535 148.114 552.093 150.663 551.012 153.213 549.93 156.126 549.21 157.219 548.849 158.676 548.128 159.768 546.326 163.775 544.524 167.781 543.082 171.787 525.422 214.399 519.655 257.374 520.016 296.708 520.376 307.27 520.737 317.832 521.818 327.665 522.178 330.943 522.539 334.221 522.899 337.499 530.468 392.493 549.21 433.648 560.022 444.209 567.23 451.858 588.855 463.148 619.131 471.889 622.374 472.981 625.978 473.71 629.583 474.802 651.568 480.265 677.518 484.272 705.631 485 709.235 485 712.839 485 716.443 485 731.581 483.907 746.358 482.451 761.135 480.265z" class="color9FDE47 svgShape"></path></svg></g></svg>