<svg width="24" height="24" viewBox="0 0 24 24" fill="none" xmlns="http://www.w3.org/2000/svg">
<rect x="0.5" y="0.5" width="23" height="23" rx="11.5" fill="#1A1D28" stroke="black"/>
<path d="M10.8379 7.296C10.8379 6.9216 10.9723 6.6144 11.2411 6.3744C11.5099 6.1248 11.8651 6 12.3067 6C12.7483 6 13.1035 6.1248 13.3723 6.3744C13.6411 6.6144 13.7755 6.9216 13.7755 7.296C13.7755 7.6608 13.6411 7.968 13.3723 8.2176C13.1035 8.4576 12.7483 8.5776 12.3067 8.5776C11.8651 8.5776 11.5099 8.4576 11.2411 8.2176C10.9723 7.968 10.8379 7.6608 10.8379 7.296ZM13.5307 9.5568V17.592H11.0683V9.5568H13.5307Z" fill="white"/>
</svg>